{
	"accessors" : 
	[
		{
			"bufferView" : 2,
			"byteOffset" : 0,
			"componentType" : 5126,
			"count" : 9914,
			"max" : 
			[
				1,
				1,
				1,
				1
			],
			"min" : 
			[
				0,
				0.006584956776350737,
				0.006584956776350737,
				1
			],
			"name" : "accessor_color_m0-PolyPaper12_-1281164",
			"type" : "VEC4"
		},
		{
			"bufferView" : 2,
			"byteOffset" : 158624,
			"componentType" : 5126,
			"count" : 3380,
			"max" : 
			[
				1,
				1,
				1,
				1
			],
			"min" : 
			[
				0.006584956776350737,
				0.006584956776350737,
				0.006584956776350737,
				1
			],
			"name" : "accessor_color_m1-PolyPaper9_-1281170",
			"type" : "VEC4"
		},
		{
			"bufferView" : 0,
			"byteOffset" : 0,
			"componentType" : 5123,
			"count" : 14334,
			"max" : 
			[
				9913
			],
			"min" : 
			[
				0
			],
			"name" : "accessor_indices_0_m0-PolyPaper12_-1281164",
			"type" : "SCALAR"
		},
		{
			"bufferView" : 0,
			"byteOffset" : 28668,
			"componentType" : 5123,
			"count" : 4662,
			"max" : 
			[
				3379
			],
			"min" : 
			[
				0
			],
			"name" : "accessor_indices_0_m1-PolyPaper9_-1281170",
			"type" : "SCALAR"
		},
		{
			"bufferView" : 1,
			"byteOffset" : 118968,
			"componentType" : 5126,
			"count" : 9914,
			"max" : 
			[
				0.999488,
				0.9997777,
				0.9999279
			],
			"min" : 
			[
				-0.9994881,
				-0.9995560999999999,
				-0.9999279
			],
			"name" : "accessor_normal_m0-PolyPaper12_-1281164",
			"type" : "VEC3"
		},
		{
			"bufferView" : 1,
			"byteOffset" : 278496,
			"componentType" : 5126,
			"count" : 3380,
			"max" : 
			[
				0.9992472,
				0.9958106,
				0.9961876
			],
			"min" : 
			[
				-0.9992471000000001,
				-0.9959198,
				-0.9961876
			],
			"name" : "accessor_normal_m1-PolyPaper9_-1281170",
			"type" : "VEC3"
		},
		{
			"bufferView" : 1,
			"byteOffset" : 0,
			"componentType" : 5126,
			"count" : 9914,
			"max" : 
			[
				3.98103,
				2.742351,
				4.657179
			],
			"min" : 
			[
				-4.671137,
				-4.986386,
				-4.935218
			],
			"name" : "accessor_position_m0-PolyPaper12_-1281164",
			"type" : "VEC3"
		},
		{
			"bufferView" : 1,
			"byteOffset" : 237936,
			"componentType" : 5126,
			"count" : 3380,
			"max" : 
			[
				1.18518,
				2.478797,
				1.733003
			],
			"min" : 
			[
				-2.23632,
				0.09560705,
				-2.196404
			],
			"name" : "accessor_position_m1-PolyPaper9_-1281170",
			"type" : "VEC3"
		}
	],
	"asset" : 
	{
		"copyright" : "Unknown",
		"generator" : "glTF 1-to-2 Upgrader for Google Blocks",
		"version" : "2.0"
	},
	"bufferViews" : 
	[
		{
			"buffer" : 0,
			"byteLength" : 37992,
			"byteOffset" : 0,
			"name" : "ushortBufferView",
			"target" : 34963
		},
		{
			"buffer" : 0,
			"byteLength" : 319056,
			"byteOffset" : 37992,
			"byteStride" : 12,
			"name" : "vec3BufferView",
			"target" : 34962
		},
		{
			"buffer" : 0,
			"byteLength" : 212704,
			"byteOffset" : 357048,
			"byteStride" : 16,
			"name" : "vec4BufferView",
			"target" : 34962
		}
	],
	"buffers" : 
	[
		{
			"byteLength" : 569752,
			"name" : "model",
			"uri" : "model.bin"
		}
	],
	"materials" : 
	[
		{
			"alphaMode" : "OPAQUE",
			"doubleSided" : false,
			"name" : "BlocksPaper",
			"pbrMetallicRoughness" : 
			{
				"baseColorFactor" : 
				[
					1,
					1,
					1,
					1
				],
				"metallicFactor" : 0,
				"roughnessFactor" : 0.6
			}
		},
		{
			"alphaMode" : "BLEND",
			"doubleSided" : false,
			"name" : "BlocksGlass",
			"pbrMetallicRoughness" : 
			{
				"baseColorFactor" : 
				[
					0.2,
					0.2,
					1,
					0.3
				],
				"metallicFactor" : 1,
				"roughnessFactor" : 0.4
			}
		},
		{
			"alphaMode" : "OPAQUE",
			"doubleSided" : true,
			"name" : "BlocksGem",
			"pbrMetallicRoughness" : 
			{
				"baseColorFactor" : 
				[
					1,
					0.4,
					1,
					1
				],
				"metallicFactor" : 0,
				"roughnessFactor" : 0.1
			}
		}
	],
	"meshes" : 
	[
		{
			"name" : "mesh_m0-PolyPaper12_-1281164",
			"primitives" : 
			[
				{
					"attributes" : 
					{
						"COLOR_0" : 0,
						"NORMAL" : 4,
						"POSITION" : 6
					},
					"indices" : 2,
					"material" : 0,
					"mode" : 4
				}
			]
		},
		{
			"name" : "mesh_m1-PolyPaper9_-1281170",
			"primitives" : 
			[
				{
					"attributes" : 
					{
						"COLOR_0" : 1,
						"NORMAL" : 5,
						"POSITION" : 7
					},
					"indices" : 3,
					"material" : 0,
					"mode" : 4
				}
			]
		}
	],
	"nodes" : 
	[
		{
			"matrix" : 
			[
				1,
				0,
				0,
				0,
				0,
				1,
				0,
				0,
				0,
				0,
				1,
				0,
				0,
				0,
				0,
				1
			],
			"mesh" : 1,
			"name" : "node_MeshObject-1573014912-PolyPaper9"
		},
		{
			"matrix" : 
			[
				1,
				0,
				0,
				0,
				0,
				1,
				0,
				0,
				0,
				0,
				1,
				0,
				0,
				0,
				0,
				1
			],
			"mesh" : 0,
			"name" : "node_MeshObject-2091734976-PolyPaper12"
		}
	],
	"scene" : 0,
	"scenes" : 
	[
		{
			"extras" : {},
			"name" : "defaultScene",
			"nodes" : 
			[
				1,
				0
			]
		}
	]
}